<svg width="432" height="512" viewBox="0 0 432 512" fill="none" xmlns="http://www.w3.org/2000/svg">
<path d="M88 48L74.7 61.3C62.7 73.3 56 89.5 56 106.5V238.9C56 249.6 61.3 259.6 70.2 265.5L80.8 272.5C95.1 282.1 113.5 283.2 128.9 275.5L132.1 273.9C134.7 272.6 137.1 271.1 139.4 269.4L188.8 232.4C195.4 227.4 204.5 227.4 211.1 232.4C221.3 240.1 221 255.5 210.4 262.7L82.4 350C65.9 361.3 56 380 56 400H376L404.9 241C407 229.7 408 218.2 408 206.7V192C408 86 322 0 216 0H75.8C64.9 0 56 8.9 56 19.8C56 27.3 60.2 34.1 66.9 37.5L88 48ZM112 116C112 110.696 114.107 105.609 117.858 101.858C121.609 98.1071 126.696 96 132 96C137.304 96 142.391 98.1071 146.142 101.858C149.893 105.609 152 110.696 152 116C152 121.304 149.893 126.391 146.142 130.142C142.391 133.893 137.304 136 132 136C126.696 136 121.609 133.893 117.858 130.142C114.107 126.391 112 121.304 112 116ZM14.6 473.4C10.4 477.6 8 483.4 8 489.4C8 501.9 18.1 512 30.6 512H401.3C413.8 512 423.9 501.9 423.9 489.4C423.9 483.4 421.5 477.6 417.3 473.4L376 432H56L14.6 473.4Z" fill="#F6F2EE" stroke="black" stroke-width="15" stroke-linejoin="round"/>
</svg>
