<svg width="448" height="512" viewBox="0 0 448 512" fill="none" xmlns="http://www.w3.org/2000/svg">
<g clip-path="url(#clip0_1_10)">
<path d="M248.5 48V55.5H256H272C285.558 55.5 296.5 66.4421 296.5 80C296.5 93.5579 285.558 104.5 272 104.5H256H248.5V112V160V167.5H256H408C425.958 167.5 440.5 182.042 440.5 200C440.5 204.346 439.683 208.535 438.006 212.446L437.991 212.481L437.977 212.516L363 392.5H85.0004L10.0233 212.516L10.0086 212.481L9.99359 212.446C8.3174 208.535 7.5 204.346 7.5 200C7.5 182.042 22.0421 167.5 40 167.5H192H199.5V160V112V104.5H192H176C162.442 104.5 151.5 93.5579 151.5 80C151.5 66.4421 162.442 55.5 176 55.5H192H199.5V48V32C199.5 18.4421 210.442 7.5 224 7.5C237.558 7.5 248.5 18.4421 248.5 32V48ZM43.9033 478.703L83.1066 439.5H364.893L404.097 478.703C406.881 481.488 408.5 485.376 408.5 489.4C408.5 497.758 401.758 504.5 393.4 504.5H54.6C46.2421 504.5 39.5 497.758 39.5 489.4C39.5 485.376 41.1188 481.488 43.9033 478.703Z" fill="#F6F2EE" stroke="black" stroke-width="15"/>
</g>
<defs>
<clipPath id="clip0_1_10">
<rect width="448" height="512" fill="white"/>
</clipPath>
</defs>
</svg>
