<svg width="320" height="512" viewBox="0 0 320 512" fill="none" xmlns="http://www.w3.org/2000/svg">
<path d="M128.588 69.1164C130.655 67.1364 131.415 64.1522 130.546 61.4245C129.678 58.6968 127.332 56.7014 124.501 56.2812C112.597 54.5149 103.5 44.3022 103.5 32C103.5 18.4421 114.442 7.5 128 7.5H192C205.558 7.5 216.5 18.4421 216.5 32C216.5 44.3022 207.403 54.5149 195.499 56.2812C192.666 56.7017 190.319 58.6991 189.452 61.429C188.585 64.1589 189.348 67.1443 191.419 69.123C212.522 89.2833 239.121 118.37 261.293 153.5L159.397 255.397C150.268 264.526 150.268 279.474 159.397 288.603C168.526 297.732 183.474 297.732 192.603 288.603L284.353 196.854C296.609 225.158 304.5 255.805 304.5 288C304.5 331.229 276.632 354.094 252.667 365.981C250.115 367.247 248.5 369.851 248.5 372.7V392.5H71.5V372.7C71.5 369.842 69.8757 367.232 67.3113 365.971C43.3748 354.192 15.5 331.334 15.5 288C15.5 193.314 83.7886 112.024 128.588 69.1164ZM307.99 478.697L307.997 478.703C310.781 481.488 312.4 485.376 312.4 489.4C312.4 497.758 305.658 504.5 297.3 504.5H22.6C14.2421 504.5 7.5 497.758 7.5 489.4C7.5 485.376 9.11876 481.488 11.9033 478.703L51.1066 439.5H268.888L307.99 478.697Z" fill="#121416" stroke="#070808" stroke-width="15" stroke-linejoin="round"/>
</svg>
