<svg width="288" height="480" viewBox="0 0 288 480" fill="none" xmlns="http://www.w3.org/2000/svg">
<path d="M195.502 185.655L173.53 199.5H199.5H208C221.558 199.5 232.5 210.442 232.5 224C232.5 236.599 222.951 246.964 210.662 248.347L203.217 249.185L204.046 256.63L215.618 360.5H72.382L83.9539 256.63L84.7834 249.185L77.3385 248.347C65.0489 246.964 55.5 236.599 55.5 224C55.5 210.442 66.4421 199.5 80 199.5H88.5H114.395L92.5082 185.661C65.4881 168.576 47.5 138.419 47.5 104C47.5 50.7421 90.7421 7.5 144 7.5C197.258 7.5 240.5 50.7421 240.5 104C240.5 138.43 222.602 168.577 195.502 185.655ZM275.99 446.697L275.997 446.703C278.781 449.488 280.4 453.376 280.4 457.4C280.4 465.758 273.658 472.5 265.3 472.5H22.6C14.2421 472.5 7.5 465.758 7.5 457.4C7.5 453.376 9.11876 449.488 11.9033 446.703L51.1066 407.5H236.888L275.99 446.697Z" fill="#121416" stroke="#070808" stroke-width="15"/>
</svg>
