<svg width="510" height="512" viewBox="0 0 510 512" fill="none" xmlns="http://www.w3.org/2000/svg">
<path d="M369.617 145.593L369.622 145.612L369.627 145.631C377.449 176.698 405.595 199.6 439 199.6C451.042 199.6 462.443 196.592 472.305 191.331C478.509 188.092 486.159 188.071 492.445 191.972L492.457 191.98L492.469 191.987C501.964 197.83 504.943 210.24 499.191 219.705L499.186 219.713L394.475 392.5H383H342.6H167.5H127H115.525L10.8141 219.713L10.8094 219.705C5.06001 210.244 8.03292 197.843 17.5169 191.996C23.8775 188.128 31.559 188.121 37.7097 191.338C47.6403 196.58 58.9333 199.6 71 199.6C104.402 199.6 132.547 176.701 140.371 145.638C142.922 135.603 151.897 127.5 163.3 127.5C172.551 127.5 180.413 132.911 184.342 140.452C197.581 166.043 224.292 183.5 255 183.5C285.706 183.5 312.416 166.045 325.656 140.457C329.584 132.913 337.447 127.5 346.7 127.5C358.229 127.5 367.164 135.624 369.617 145.593ZM255 7.5C267.863 7.5 280.199 12.6098 289.295 21.7053C298.39 30.8008 303.5 43.137 303.5 56C303.5 68.863 298.39 81.1992 289.295 90.2947C280.199 99.3902 267.863 104.5 255 104.5C242.137 104.5 229.801 99.3902 220.705 90.2947C211.61 81.1992 206.5 68.863 206.5 56C206.5 43.137 211.61 30.8008 220.705 21.7053C229.801 12.6098 242.137 7.5 255 7.5ZM74.9033 478.703L114.107 439.5H395.893L435.097 478.703C437.881 481.488 439.5 485.376 439.5 489.4C439.5 497.758 432.758 504.5 424.4 504.5H85.6C77.2421 504.5 70.5 497.758 70.5 489.4C70.5 485.376 72.1188 481.488 74.9033 478.703Z" fill="#4B5258" stroke="#303336" stroke-width="15"/>
</svg>
