<svg width="416" height="480" viewBox="0 0 416 480" fill="none" xmlns="http://www.w3.org/2000/svg">
<path d="M382.736 179.573L382.718 179.587L382.7 179.6L331.5 218L328.073 220.57L328.546 224.828L343.621 360.5H72.3795L87.4541 224.828L87.9272 220.57L84.5 218L33.3 179.6L33.2821 179.587L33.2642 179.573C27.1107 175.015 23.5 167.77 23.5 160V16C23.5 11.3421 27.3421 7.5 32 7.5H96C100.658 7.5 104.5 11.3421 104.5 16V56C104.5 64.5421 111.458 71.5 120 71.5H152C160.542 71.5 167.5 64.5421 167.5 56V16C167.5 11.3421 171.342 7.5 176 7.5H240C244.658 7.5 248.5 11.3421 248.5 16V56C248.5 64.5421 255.458 71.5 264 71.5H296C304.542 71.5 311.5 64.5421 311.5 56V16C311.5 11.3421 315.342 7.5 320 7.5H384C388.658 7.5 392.5 11.3421 392.5 16V160C392.5 167.77 388.889 175.015 382.736 179.573ZM224 263.5C236.942 263.5 247.5 252.942 247.5 240V192C247.5 170.158 229.842 152.5 208 152.5C186.158 152.5 168.5 170.158 168.5 192V240C168.5 252.942 179.058 263.5 192 263.5H224ZM11.9033 446.703L51.1066 407.5H364.893L404.097 446.703C406.881 449.488 408.5 453.376 408.5 457.4C408.5 465.758 401.758 472.5 393.4 472.5H22.6C14.2421 472.5 7.5 465.758 7.5 457.4C7.5 453.376 9.11876 449.488 11.9033 446.703Z" fill="#4B5258" stroke="#303336" stroke-width="15"/>
</svg>
